<svg width="387" height="289" viewBox="0 0 387 289" fill="none" xmlns="http://www.w3.org/2000/svg">
<g filter="url(#filter0_b_2_3)">
<mask id="path-1-inside-1_2_3" fill="white">
<path fill-rule="evenodd" clip-rule="evenodd" d="M194 89C238.735 89 275 52.7351 275 8V8C275 3.70718 278.33 8.19858e-06 282.623 7.80166e-06L367 0C378.046 0 387 8.9543 387 20L387 269C387 280.046 378.046 289 367 289L20 289C8.95434 289 2.35167e-05 280.046 2.35167e-05 269L0 20C-9.65645e-07 8.95434 8.9543 3.30498e-05 20 3.20842e-05L105.377 2.419e-05C109.67 2.37931e-05 113 3.70718 113 8V8C113 52.7351 149.265 89 194 89Z"/>
</mask>
<path fill-rule="evenodd" clip-rule="evenodd" d="M194 89C238.735 89 275 52.7351 275 8V8C275 3.70718 278.33 8.19858e-06 282.623 7.80166e-06L367 0C378.046 0 387 8.9543 387 20L387 269C387 280.046 378.046 289 367 289L20 289C8.95434 289 2.35167e-05 280.046 2.35167e-05 269L0 20C-9.65645e-07 8.95434 8.9543 3.30498e-05 20 3.20842e-05L105.377 2.419e-05C109.67 2.37931e-05 113 3.70718 113 8V8C113 52.7351 149.265 89 194 89Z" fill="white" fill-opacity="0.1"/>
<path d="M367 0L367 -2L367 -2L367 0ZM387 20L385 20L385 20L387 20ZM387 269L389 269L389 269L387 269ZM367 289L367 287H367L367 289ZM20 289L20 291H20L20 289ZM2.35167e-05 269L2.00002 269L2.00002 269L2.35167e-05 269ZM0 20L-2 20L0 20ZM20 3.20842e-05L20 2.00003L20 3.20842e-05ZM105.377 2.419e-05L105.377 -1.99998L105.377 2.419e-05ZM273 8C273 51.6305 237.631 87 194 87V91C239.84 91 277 53.8396 277 8H273ZM282.623 2.00001L367 2L367 -2L282.623 -1.99999L282.623 2.00001ZM367 2C376.941 2 385 10.0589 385 20H389C389 7.84973 379.15 -2 367 -2V2ZM385 20L385 269L389 269L389 20L385 20ZM385 269C385 278.941 376.941 287 367 287V291C379.15 291 389 281.15 389 269H385ZM367 287L20 287L20 291L367 291L367 287ZM20 287C10.0589 287 2.00002 278.941 2.00002 269H-1.99998C-1.99998 281.15 7.84977 291 20 291V287ZM2.00002 269L2 20L-2 20L-1.99998 269L2.00002 269ZM2 20C2 10.0589 10.0589 2.00003 20 2.00003L20 -1.99997C7.84973 -1.99997 -2 7.84977 -2 20L2 20ZM20 2.00003L105.377 2.00002L105.377 -1.99998L20 -1.99997L20 2.00003ZM194 87C150.37 87 115 51.6305 115 8H111C111 53.8396 148.16 91 194 91V87ZM105.377 2.00002C108.442 2.00002 111 4.68411 111 8H115C115 2.73025 110.898 -1.99998 105.377 -1.99998L105.377 2.00002ZM277 8C277 4.68411 279.558 2.00001 282.623 2.00001L282.623 -1.99999C277.102 -1.99999 273 2.73025 273 8H277Z" fill="url(#paint0_linear_2_3)" mask="url(#path-1-inside-1_2_3)"/>
</g>
<defs>
<filter id="filter0_b_2_3" x="-10" y="-10" width="407" height="309" filterUnits="userSpaceOnUse" color-interpolation-filters="sRGB">
<feFlood flood-opacity="0" result="BackgroundImageFix"/>
<feGaussianBlur in="BackgroundImage" stdDeviation="5"/>
<feComposite in2="SourceAlpha" operator="in" result="effect1_backgroundBlur_2_3"/>
<feBlend mode="normal" in="SourceGraphic" in2="effect1_backgroundBlur_2_3" result="shape"/>
</filter>
<linearGradient id="paint0_linear_2_3" x1="379.371" y1="289" x2="10.2942" y2="7.19669" gradientUnits="userSpaceOnUse">
<stop stop-color="#DB00FF"/>
<stop offset="1" stop-color="#00E0FF"/>
</linearGradient>
</defs>
</svg>
